<mxfile host="app.diagrams.net" modified="2024-02-20T11:44:08.389Z" agent="Mozilla/5.0 (Windows NT 10.0; Win64; x64) AppleWebKit/537.36 (KHTML, like Gecko) Chrome/121.0.0.0 Safari/537.36" etag="s8TwskTVloddm6M58rpx" version="23.1.5" type="github">
  <diagram name="Page-1" id="5EkKsEHkEoh4in9_bS8d">
    <mxGraphModel dx="1434" dy="738" grid="1" gridSize="10" guides="1" tooltips="1" connect="1" arrows="1" fold="1" page="1" pageScale="1" pageWidth="850" pageHeight="1100" math="0" shadow="0">
      <root>
        <mxCell id="0" />
        <mxCell id="1" parent="0" />
        <mxCell id="WiqisFymTJ9R6mHblORX-1" value="" style="whiteSpace=wrap;html=1;aspect=fixed;fillColor=#dae8fc;strokeColor=#6c8ebf;" vertex="1" parent="1">
          <mxGeometry x="150" y="70" width="430" height="430" as="geometry" />
        </mxCell>
        <mxCell id="WiqisFymTJ9R6mHblORX-2" value="ROV" style="text;html=1;align=left;verticalAlign=middle;resizable=0;points=[];autosize=1;strokeColor=none;fillColor=none;" vertex="1" parent="1">
          <mxGeometry x="150" y="40" width="50" height="30" as="geometry" />
        </mxCell>
        <mxCell id="WiqisFymTJ9R6mHblORX-8" style="edgeStyle=orthogonalEdgeStyle;rounded=0;orthogonalLoop=1;jettySize=auto;html=1;" edge="1" parent="1" source="WiqisFymTJ9R6mHblORX-3" target="WiqisFymTJ9R6mHblORX-7">
          <mxGeometry relative="1" as="geometry">
            <Array as="points">
              <mxPoint x="230" y="230" />
            </Array>
          </mxGeometry>
        </mxCell>
        <mxCell id="WiqisFymTJ9R6mHblORX-3" value="" style="shape=mxgraph.cisco.computers_and_peripherals.pc;html=1;pointerEvents=1;dashed=0;fillColor=#036897;strokeColor=#ffffff;strokeWidth=2;verticalLabelPosition=bottom;verticalAlign=top;align=center;outlineConnect=0;" vertex="1" parent="1">
          <mxGeometry x="200" y="100" width="60" height="60" as="geometry" />
        </mxCell>
        <mxCell id="WiqisFymTJ9R6mHblORX-13" style="edgeStyle=orthogonalEdgeStyle;rounded=0;orthogonalLoop=1;jettySize=auto;html=1;entryX=0;entryY=0.25;entryDx=0;entryDy=0;" edge="1" parent="1" source="WiqisFymTJ9R6mHblORX-4" target="WiqisFymTJ9R6mHblORX-7">
          <mxGeometry relative="1" as="geometry">
            <Array as="points">
              <mxPoint x="305" y="210" />
            </Array>
          </mxGeometry>
        </mxCell>
        <mxCell id="WiqisFymTJ9R6mHblORX-4" value="" style="shape=mxgraph.cisco.computers_and_peripherals.pc;html=1;pointerEvents=1;dashed=0;fillColor=#036897;strokeColor=#ffffff;strokeWidth=2;verticalLabelPosition=bottom;verticalAlign=top;align=center;outlineConnect=0;" vertex="1" parent="1">
          <mxGeometry x="280" y="100" width="60" height="60" as="geometry" />
        </mxCell>
        <mxCell id="WiqisFymTJ9R6mHblORX-14" style="edgeStyle=orthogonalEdgeStyle;rounded=0;orthogonalLoop=1;jettySize=auto;html=1;entryX=0.75;entryY=0;entryDx=0;entryDy=0;" edge="1" parent="1" source="WiqisFymTJ9R6mHblORX-5" target="WiqisFymTJ9R6mHblORX-7">
          <mxGeometry relative="1" as="geometry" />
        </mxCell>
        <mxCell id="WiqisFymTJ9R6mHblORX-5" value="" style="shape=mxgraph.cisco.computers_and_peripherals.pc;html=1;pointerEvents=1;dashed=0;fillColor=#036897;strokeColor=#ffffff;strokeWidth=2;verticalLabelPosition=bottom;verticalAlign=top;align=center;outlineConnect=0;" vertex="1" parent="1">
          <mxGeometry x="365" y="100" width="60" height="60" as="geometry" />
        </mxCell>
        <mxCell id="WiqisFymTJ9R6mHblORX-9" style="edgeStyle=orthogonalEdgeStyle;rounded=0;orthogonalLoop=1;jettySize=auto;html=1;" edge="1" parent="1" source="WiqisFymTJ9R6mHblORX-6" target="WiqisFymTJ9R6mHblORX-7">
          <mxGeometry relative="1" as="geometry">
            <Array as="points">
              <mxPoint x="490" y="230" />
            </Array>
          </mxGeometry>
        </mxCell>
        <mxCell id="WiqisFymTJ9R6mHblORX-6" value="" style="image;html=1;image=img/lib/clip_art/computers/Server_128x128.png" vertex="1" parent="1">
          <mxGeometry x="450" y="100" width="80" height="80" as="geometry" />
        </mxCell>
        <mxCell id="WiqisFymTJ9R6mHblORX-7" value="" style="image;html=1;image=img/lib/clip_art/networking/Switch_128x128.png" vertex="1" parent="1">
          <mxGeometry x="325" y="190" width="80" height="80" as="geometry" />
        </mxCell>
        <mxCell id="WiqisFymTJ9R6mHblORX-15" value="" style="whiteSpace=wrap;html=1;aspect=fixed;fillColor=#dae8fc;strokeColor=#6c8ebf;" vertex="1" parent="1">
          <mxGeometry x="150" y="560" width="430" height="430" as="geometry" />
        </mxCell>
        <mxCell id="WiqisFymTJ9R6mHblORX-16" value="SURVEY" style="text;html=1;align=left;verticalAlign=middle;whiteSpace=wrap;rounded=0;" vertex="1" parent="1">
          <mxGeometry x="150" y="530" width="60" height="30" as="geometry" />
        </mxCell>
      </root>
    </mxGraphModel>
  </diagram>
</mxfile>
